<?xml version="1.0" encoding="utf-8"?>
<!-- Generator: Adobe Illustrator 24.0.0, SVG Export Plug-In . SVG Version: 6.00 Build 0)  -->
<svg version="1.1" id="Layer_1" xmlns="http://www.w3.org/2000/svg" xmlns:xlink="http://www.w3.org/1999/xlink" x="0px" y="0px"
	 viewBox="0 0 42.2 64.9" style="enable-background:new 0 0 42.2 64.9;" xml:space="preserve">
<style type="text/css">
	.st0{fill:#E0E0E0;}
	.st1{fill:#4F4F4F;}
</style>
<title>Asset 6</title>
<g id="Layer_2_1_">
	<g id="Layer_1-2">
		<path d="M37.8,64.9c2.4,0,4.4-1.9,4.4-4.4c0-0.2,0-0.4,0-0.6c-1.3-10.1-6.8-19.2-15.1-25.2l0,0c-1.9-1.4-4.6-0.9-6,1L5,58
			c-1.4,2-1,4.7,1,6.1c0.7,0.5,1.6,0.8,2.5,0.8L37.8,64.9z"/>
		<path class="st0" d="M34,0H4.4C2,0,0,2,0,4.4v13.1c0,2.4,1.9,4.4,4.3,4.4c0,0,0.1,0,0.1,0h0.9c5.1,0,10.2,1,14.9,3.1
			c1.9,0.8,4.1,0.2,5.3-1.4l0.5-0.7L37.5,6.9c1.4-2,1-4.7-1-6.1C35.8,0.3,34.9,0,34,0z"/>
		<path class="st1" d="M20.3,32.8c1.4-2,1-4.7-1-6.1c-0.3-0.2-0.7-0.4-1.1-0.6c-4.1-1.5-8.5-2.3-12.9-2.3H4.3c-2.4,0-4.3,2-4.3,4.4
			v19.2c0,2.4,1.9,4.4,4.3,4.4c1.4,0,2.8-0.7,3.6-1.8L20.3,32.8z"/>
	</g>
</g>
</svg>
