<svg xmlns="http://www.w3.org/2000/svg" viewBox="0 0 263.09 66.75">
    <defs>
        <style>
            .cls-1{fill:#dfdfdf;}.cls-2{fill:#4f4f4f;}.cls-3{font-size:54.35px;fill:#1d1d1b;font-family:Nunito-SemiBold,
            Nunito;font-weight:600;}.cls-4{letter-spacing:0em;}
        </style>
    </defs>
    <title>text-logo-align-vertical-center</title>
    <g id="Capa_2" data-name="Capa 2">
        <g id="Capa_1-2" data-name="Capa 1">
            <g id="Layer_2" data-name="Layer 2">
                <g id="Layer_1-2" data-name="Layer 1-2">
                    <path d="M37.8,64.9a4.37,4.37,0,0,0,4.4-4.4v-.6A37,37,0,0,0,27.1,34.7h0a4.32,4.32,0,0,0-6,1L5,58a4.34,4.34,0,0,0,3.5,6.9Z"/>
                    <path class="cls-1"
                          d="M34,0H4.4A4.44,4.44,0,0,0,0,4.4V17.5a4.35,4.35,0,0,0,4.3,4.4h1A36.52,36.52,0,0,1,20.2,25a4.48,4.48,0,0,0,5.3-1.4l.5-.7,11.5-16A4.34,4.34,0,0,0,34,0Z"/>
                    <path class="cls-2"
                          d="M20.3,32.8a4.34,4.34,0,0,0-1-6.1,10.91,10.91,0,0,0-1.1-.6A37.71,37.71,0,0,0,5.3,23.8h-1A4.35,4.35,0,0,0,0,28.2V47.4a4.35,4.35,0,0,0,4.3,4.4A4.55,4.55,0,0,0,7.9,50Z"/>
                </g>
            </g>
            <text class="cls-3" transform="translate(46.14 51.8)">osm
                <tspan class="cls-4" x="103.69" y="0">e</tspan>
                <tspan x="132.17" y="0">tics</tspan>
            </text>
        </g>
    </g>
</svg>