<svg height="512" viewBox="0 0 128 128" width="512" fill="#AAAAAA" xmlns="http://www.w3.org/2000/svg"><g id="Layer_1" data-name="Layer 1"><path d="m105.56 45.03v-13.34a9.259 9.259 0 0 0 -9.25-9.25 9.26 9.26 0 0 0 -9.25 9.25v13.34a10.836 10.836 0 0 1 -8.693 10.67l.421-10.6h4.3a1.75 1.75 0 0 0 0-3.5h-4.16l.494-12.415h4.354a1.75 1.75 0 0 0 0-3.5h-4.276a15.334 15.334 0 0 0 -3.295-9.007l2.827-3.811a1.75 1.75 0 1 0 -2.811-2.086l-2.516 3.39a15.313 15.313 0 0 0 -7.957-3.321v-4.35a1.75 1.75 0 0 0 -3.5 0v4.354a15.311 15.311 0 0 0 -7.957 3.321l-2.516-3.391a1.75 1.75 0 0 0 -2.811 2.086l2.828 3.811a15.328 15.328 0 0 0 -3.3 9.006h-4.267a1.75 1.75 0 0 0 0 3.5h4.354l.493 12.413h-4.166a1.75 1.75 0 0 0 0 3.5h4.305l1.189 29.893a10.908 10.908 0 0 1 -9.46-10.793v-13.35a9.261 9.261 0 0 0 -9.25-9.25 9.26 9.26 0 0 0 -9.25 9.25v13.34a29.439 29.439 0 0 0 28.7 29.391l1.04 26.168h-27.989a1.75 1.75 0 1 0 0 3.5h79.618a1.75 1.75 0 0 0 0-3.5h-27.988l1.8-45.347a29.446 29.446 0 0 0 27.939-29.372zm-15 0v-13.34a5.756 5.756 0 0 1 5.75-5.75 5.758 5.758 0 0 1 5.75 5.75v13.34a25.94 25.94 0 0 1 -24.3 25.855l.461-11.6a14.318 14.318 0 0 0 12.339-14.255zm-64.62 19.16v-13.34a5.756 5.756 0 0 1 5.75-5.75 5.761 5.761 0 0 1 5.75 5.75v13.35a14.415 14.415 0 0 0 13.1 14.334l.46 11.544a25.936 25.936 0 0 1 -25.06-25.888zm29.742 55.56-1.7-42.873c0-.01 0-.018 0-.028s-.006-.042-.006-.064l-1.328-33.348c0-.029.009-.056.009-.085a1.713 1.713 0 0 0 -.02-.2l-.652-16.4a12.025 12.025 0 1 1 24.03 0l-.653 16.418a1.719 1.719 0 0 0 -.018.183c0 .027.007.052.008.079l-.566 14.23c0 .023-.006.045 0 .068v.013l-2.468 62.007z"/><path d="m57.769 65.251a1.75 1.75 0 0 0 -1.679 1.818l1.542 38.793a1.75 1.75 0 0 0 1.747 1.681h.071a1.75 1.75 0 0 0 1.679-1.818l-1.543-38.794a1.762 1.762 0 0 0 -1.817-1.68z"/></g></svg>